<svg xmlns="http://www.w3.org/2000/svg" xmlns:xlink="http://www.w3.org/1999/xlink" viewBox="0 0 64 64"><defs><linearGradient id="a" x1="5.475" x2="70.129" y1="68.319" y2="4.652" gradientUnits="userSpaceOnUse"><stop offset="0" stop-color="#fff200"/><stop offset="1" stop-color="#cd118c"/></linearGradient><linearGradient id="b" x1="14.829" x2="79.483" y1="77.818" y2="14.151" xlink:href="#a"/><linearGradient id="c" x1="18.767" x2="83.421" y1="81.817" y2="18.15" xlink:href="#a"/><linearGradient id="d" x1="9.906" x2="74.56" y1="72.818" y2="9.151" xlink:href="#a"/><linearGradient id="e" x1="2.376" x2="67.03" y1="65.172" y2="1.505" xlink:href="#a"/></defs><path fill="url(#a)" d="M19,51a4,4,0,1,0,4,4A4,4,0,0,0,19,51Zm0,6a2,2,0,1,1,2-2A2,2,0,0,1,19,57Z"/><path fill="url(#b)" d="M40,52H36a1,1,0,0,0-1,1v4a1,1,0,0,0,1,1h4a1,1,0,0,0,1-1V53A1,1,0,0,0,40,52Zm-1,4H37V54h2Z"/><path fill="url(#c)" d="M48,52H44a1,1,0,0,0-1,1v4a1,1,0,0,0,1,1h4a1,1,0,0,0,1-1V53A1,1,0,0,0,48,52Zm-1,4H45V54h2Z"/><rect width="4" height="2" x="26" y="54" fill="url(#d)"/><path fill="url(#e)" d="M59,16H54a10,10,0,0,0-9.338-9.966A6,6,0,0,0,33,8V38a6,6,0,0,0,11.747,1.717,5.95,5.95,0,0,0,4.008-7.393,5.977,5.977,0,0,0,2-8.97A9.985,9.985,0,0,0,53.8,18H59a1,1,0,0,1,1,1V53a1,1,0,0,1-1,1H54V51a3,3,0,0,0-3-3H13a3,3,0,0,0-3,3v3H5a1,1,0,0,1-1-1V19a1,1,0,0,1,1-1h5.2a9.985,9.985,0,0,0,3.045,5.354,5.978,5.978,0,0,0,2,8.971,5.949,5.949,0,0,0,4.008,7.392A6,6,0,0,0,31,38V8A6,6,0,0,0,19.338,6.034,10,10,0,0,0,10,16H5a3,3,0,0,0-3,3V53a3,3,0,0,0,3,3h5v3a3,3,0,0,0,3,3H51a3,3,0,0,0,3-3V56h5a3,3,0,0,0,3-3V19A3,3,0,0,0,59,16ZM44,24v2a9.934,9.934,0,0,0,5.149-1.443,3.968,3.968,0,0,1-1.266,5.965A6.043,6.043,0,0,0,46.6,29.2l-1.2,1.6a3.99,3.99,0,0,1-.44,6.679A5.925,5.925,0,0,0,43.8,34.4l-1.6,1.2A3.961,3.961,0,0,1,43,38a4,4,0,0,1-8,0V8a4,4,0,1,1,6.415,3.189l1.209,1.593A5.954,5.954,0,0,0,45,8.069,8.007,8.007,0,0,1,52,16H45.858a4,4,0,1,0,0,2h5.879A8.008,8.008,0,0,1,44,24Zm0-7a2,2,0,1,1-2-2A2,2,0,0,1,44,17ZM19,8.069a5.954,5.954,0,0,0,2.372,4.713l1.209-1.593A4,4,0,1,1,29,8V38a4,4,0,0,1-8,0,3.961,3.961,0,0,1,.8-2.4l-1.6-1.2a5.925,5.925,0,0,0-1.158,3.077A3.99,3.99,0,0,1,18.6,30.8l-1.2-1.6a6.043,6.043,0,0,0-1.283,1.323,3.968,3.968,0,0,1-1.266-5.965A9.934,9.934,0,0,0,20,26V24a8.008,8.008,0,0,1-7.737-6h5.879a4,4,0,1,0,0-2H12A8.007,8.007,0,0,1,19,8.069ZM20,17a2,2,0,1,1,2,2A2,2,0,0,1,20,17ZM52,59a1,1,0,0,1-1,1H13a1,1,0,0,1-1-1V51a1,1,0,0,1,1-1H51a1,1,0,0,1,1,1Z"/></svg>