<svg xmlns="http://www.w3.org/2000/svg" xmlns:xlink="http://www.w3.org/1999/xlink" data-name="Layer 1" viewBox="0 0 24 24"><defs><linearGradient id="a" x1="6.421" x2="27.102" y1="11.208" y2="14.144" gradientUnits="userSpaceOnUse"><stop offset="0" stop-color="#96369f"/><stop offset="1" stop-color="#01b3ed"/></linearGradient><linearGradient id="b" x1="6.679" x2="27.36" y1="9.389" y2="12.326" xlink:href="#a"/></defs><path fill="url(#a)" d="M12,0A12,12,0,1,0,24,12,12.013,12.013,0,0,0,12,0Zm0,22A10,10,0,1,1,22,12,10.011,10.011,0,0,1,12,22Z"/><path fill="url(#b)" d="M17.515,14.143,13,11.434V6a1,1,0,0,0-2,0v6a1.075,1.075,0,0,0,.485.857l5,3a1,1,0,1,0,1.03-1.714Z"/></svg>