<svg xmlns="http://www.w3.org/2000/svg" xmlns:xlink="http://www.w3.org/1999/xlink" width="48" height="48" viewBox="0 0 48 48"><defs><linearGradient id="b" x1="1073.403" x2="1097.116" y1="516.451" y2="544.308" gradientTransform="translate(-1643.872 211.366) scale(1.53785)" gradientUnits="userSpaceOnUse" xlink:href="#a"/><linearGradient id="a"><stop offset="0" stop-color="#16ff6a"/><stop offset="1" stop-color="#0090a5"/></linearGradient></defs><g transform="translate(0 -1004.385)"><rect width="48" height="48" y="1004.385" fill="url(#b)" rx="10.144" ry="10.144"/><path fill="#fff" d="m 23.844057,1012.8504 a 0.50004998,0.50004998 0 0 0 -0.34375,0.5312 l 0,2 -2,0 a 0.50004998,0.50004998 0 0 0 -0.15625,0 0.50004998,0.50004998 0 0 0 -0.34375,0.5 l 0,1.5 -7.5,0 a 0.50004998,0.50004998 0 0 0 -0.15625,0 0.50004998,0.50004998 0 0 0 -0.34375,0.5 l 0,15 a 0.50004998,0.50004998 0 0 0 0.5,0.5 l 2.5,0 0,1.4688 a 0.50004998,0.50004998 0 0 0 0.5,0.5 l 3.1875,0 -3.625,6.2812 a 0.50389111,0.50389111 0 0 0 0.875,0.5 l 3.90625,-6.7812 2.5625,0 0,6.5 a 0.50004998,0.50004998 0 1 0 1,0 l 0,-6.5 2.75,0 3.90625,6.75 a 0.50389111,0.50389111 0 0 0 0.875,-0.5 l -3.625,-6.25 3.1875,0 a 0.50004998,0.50004998 0 0 0 0.5,-0.5 l 0,-1.4688 2.5,0 a 0.50004998,0.50004998 0 0 0 0.5,-0.5 l 0,-15 a 0.50004998,0.50004998 0 0 0 -0.5,-0.5 l -7.5,0 0,-1.5 a 0.50004998,0.50004998 0 0 0 -0.5,-0.5 l -2,0 0,-2 a 0.50004998,0.50004998 0 0 0 -0.5625,-0.5312 0.50004998,0.50004998 0 0 0 -0.09375,0 z m -1.84375,3.5312 4,0 0,0.9688 -4,0 0,-0.9688 z m -8,2 20,0 0,14 -17.5,0 a 0.50004998,0.50004998 0 0 0 -0.15625,0 l -2.34375,0 0,-14 z m 4,1.5 c -0.822505,0 -1.5,0.6775 -1.5,1.5 0,0.8225 0.677495,1.5 1.5,1.5 0.822505,0 1.5,-0.6775 1.5,-1.5 0,-0.8225 -0.677495,-1.5 -1.5,-1.5 z m 0,1 c 0.282065,0 0.5,0.2179 0.5,0.5 0,0.2821 -0.217935,0.5 -0.5,0.5 -0.282065,0 -0.5,-0.2179 -0.5,-0.5 0,-0.2821 0.217935,-0.5 0.5,-0.5 z m 6.9375,1.125 c -0.142983,0.018 -0.191853,0.063 -0.25,0.094 -0.05815,0.03 -0.08268,0.056 -0.15625,0.125 a 0.50004998,0.50004998 0 0 0 -0.03125,0.031 l -5.75,6.4063 a 0.50004998,0.50004998 0 0 0 -0.03125,0.031 c 0.0035,0 -0.0246,0.023 -0.03125,0.031 -0.0066,0.01 -0.0238,-0.01 -0.03125,0 a 0.50004998,0.50004998 0 0 0 0,0.031 c -0.0115,0.013 -0.02834,0.026 -0.03125,0.031 a 0.50004998,0.50004998 0 0 0 0,0.031 c -0.0051,0.01 -0.02709,-0.01 -0.03125,0 -0.0087,0.013 0.0027,0.026 0,0.031 a 0.50004998,0.50004998 0 0 0 -0.03125,0.062 c -4e-4,10e-4 -0.0625,0.1379 -0.0625,0.2812 0,0.3226 0.341261,0.6563 0.65625,0.6563 l 0.03125,0 4.875,0 6.75,0 0.03125,0 c 0.05374,-2e-4 0.105393,10e-5 0.15625,0 a 0.50004998,0.50004998 0 0 0 0.5,-0.5 l 0,-0.1875 0,-4.3438 a 0.50004998,0.50004998 0 0 0 -0.125,-0.3125 l -0.71875,-0.875 a 0.50004998,0.50004998 0 0 0 -0.0625,-0.031 0.50004998,0.50004998 0 0 0 -0.125,-0.125 l -0.03125,0 c -0.02607,-0.016 -0.02797,-0.047 -0.0625,-0.062 -0.112891,-0.05 -0.412429,-0.024 -0.28125,-0.031 -0.157087,0.013 -0.163889,0.032 -0.21875,0.062 -0.05486,0.03 -0.105447,0.075 -0.15625,0.125 a 0.50004998,0.50004998 0 0 0 -0.03125,0.031 l -1.5,1.6562 -2.6875,-3.0312 a 0.50004998,0.50004998 0 0 0 -0.03125,-0.031 c -0.017,-0.017 -0.07206,-0.013 -0.09375,-0.031 a 0.50004998,0.50004998 0 0 0 -0.1875,-0.125 c -0.143585,-0.043 -0.241509,-0.031 -0.1875,-0.031 a 0.50004998,0.50004998 0 0 0 -0.0625,0 z m 0.0625,1.1563 2.8125,3.1562 a 0.50004998,0.50004998 0 0 0 0.75,0 l 1.59375,-1.75 0.34375,0.4375 0,3.8438 -6.4375,0 -4.15625,0 5.09375,-5.6875 z m -8,10.2187 14,0 0,0.9688 -14,0 0,-0.9688 z" color="#000" font-family="Sans" font-weight="400" overflow="visible" style="line-height:normal;-inkscape-font-specification:Sans;text-indent:0;text-align:start;text-decoration-line:none;text-transform:none;block-progression:tb;marker:none"/></g></svg>